<svg xmlns="http://www.w3.org/2000/svg" width="1200" height="630" viewBox="0 0 1200 630">
  <defs><linearGradient id="bg" x2="0" y2="1"><stop stop-color="#0a1024"/><stop offset=".58" stop-color="#111a36"/><stop offset="1" stop-color="#12303c"/></linearGradient><radialGradient id="glow"><stop stop-color="#79c2bb" stop-opacity=".18"/><stop offset="1" stop-color="#79c2bb" stop-opacity="0"/></radialGradient></defs>
  <rect width="1200" height="630" fill="url(#bg)"/><ellipse cx="600" cy="620" rx="520" ry="400" fill="url(#glow)"/>
  <g fill="#fdf7e6" opacity=".75"><circle cx="95" cy="90" r="2"/><circle cx="190" cy="230" r="1.8"/><circle cx="335" cy="120" r="1.6"/><circle cx="430" cy="350" r="1.5"/><circle cx="770" cy="240" r="1.8"/><circle cx="950" cy="112" r="2"/><circle cx="1080" cy="280" r="1.7"/><circle cx="880" cy="460" r="1.5"/><circle cx="260" cy="475" r="1.8"/><circle cx="1040" cy="525" r="1.6"/></g>
  <path d="M600 246 515 162 440 176 398 238 442 300 600 414 758 300 802 238 760 176 685 162Z" fill="none" stroke="#e6c878" stroke-width="2" opacity=".85"/><g fill="#fdf7e6"><circle cx="600" cy="246" r="5"/><circle cx="515" cy="162" r="5"/><circle cx="440" cy="176" r="5"/><circle cx="398" cy="238" r="5"/><circle cx="442" cy="300" r="5"/><circle cx="600" cy="414" r="5"/><circle cx="758" cy="300" r="5"/><circle cx="802" cy="238" r="5"/><circle cx="760" cy="176" r="5"/></g>
  <text x="600" y="278" fill="#e6c878" font-family="serif" font-size="27" text-anchor="middle" direction="rtl">بسم الله الرحمن الرحيم</text>
  <text x="600" y="322" fill="#f3eede" font-family="serif" font-size="25" text-anchor="middle" direction="rtl">دعوة زفاف</text>
  <text x="600" y="375" fill="#f3eede" font-family="serif" font-weight="bold" font-size="42" text-anchor="middle" direction="rtl">محمد أديب طويل  &amp;  رزان بطايحي</text>
  <text x="600" y="430" fill="#e6c878" font-family="sans-serif" font-size="23" text-anchor="middle">Mohamad Adib Tawil  &amp;  Razan Bataihi</text>
  <text x="600" y="555" fill="#f4e2ab" font-family="serif" font-weight="bold" font-size="23" text-anchor="middle" direction="rtl">يوم الجمعة، ١٨ كانون الأول ٢٠٢٦ · الساعة السابعة مساءً</text>
</svg>
